<?xml version="1.0" encoding="UTF-8" standalone="no"?>
<svg
   xmlns:svg="http://www.w3.org/2000/svg"
   xmlns="http://www.w3.org/2000/svg"
   width="800.0"
   height="240.0"

>
    <g transform="scale(45.516411422525515, -45.516411422525515)   translate(4.228844301683631,-4.106173074417761)" stroke-width="0.02197009757023842"  fill="none">
       <!-- hidden lines -->
       <g  stroke="rgb(160,160,160)" fill="none" stroke-dasharray="0.02197009757023842,0.02197009757023842" >
			<path d="M0.16517521236405308,-0.09594881320997423 L4.884466994194141,0.23987203302493565 " />
			<path d="M4.88446699419414,0.23987203302493565 L5.214817418922246,0.04797440660498717 " />
			<path d="M4.88446699419414,0.23987203302493565 L4.88446699419414,3.6667711230129925 " />
			<path d="M0.44833271927385837,0.9033144632749937 L1.8641202538228845,1.0040607171454665 " />
			<path d="M0.44833271927385837,2.8615425146967404 L0.44833271927385837,0.9033144632749937 " />
			<path d="M1.8641202538228845,2.962288768567213 L0.4483327192738584,2.86154251469674 " />
			<path d="M1.8641202538228845,2.0810861454274274 L1.8641202538228845,2.9622887685672135 " />
			<path d="M1.9585060894594861,2.0878025623521252 L1.8641202538228845,2.081086145427427 " />
			<path d="M1.9585060894594861,3.0669165880629983 L1.9585060894594861,2.0878025623521252 " />
			<path d="M2.14727776073269,3.080349421912395 L1.9585060894594866,3.0669165880629983 " />
			<path d="M2.14727776073269,0.5346529550641246 L2.14727776073269,3.080349421912395 " />
			<path d="M2.288856514187592,0.5447275804511719 L2.1472777607326896,0.5346529550641246 " />
			<path d="M2.2888565141875925,3.090424047299442 L2.2888565141875925,0.544727580451172 " />
			<path d="M2.3832423498241946,3.09714046422414 L2.2888565141875925,3.0904240472994418 " />
			<path d="M2.3832423498241946,3.1950518667952275 L2.3832423498241946,3.09714046422414 " />
			<path d="M2.7135927745523003,3.2185593260316714 L2.383242349824194,3.195051866795228 " />
			<path d="M2.7135927745523003,3.120647923460584 L2.7135927745523003,3.2185593260316714 " />
			<path d="M2.8079786101889024,3.127364340385282 L2.7135927745523007,3.120647923460584 " />
			<path d="M2.8079786101889024,0.5816678735370119 L2.8079786101889024,3.127364340385282 " />
			<path d="M2.9495573636438044,0.5917424989240593 L2.807978610188902,0.581667873537012 " />
			<path d="M2.9495573636438044,3.137438965772329 L2.9495573636438044,0.591742498924059 " />
			<path d="M3.0439431992804065,3.1441553826970274 L2.9495573636438044,3.137438965772329 " />
			<path d="M3.043943199280406,3.242066785268115 L3.043943199280406,3.1441553826970274 " />
			<path d="M3.3742936240085117,3.265574244504559 L3.0439431992804056,3.2420667852681153 " />
			<path d="M3.3742936240085117,3.1676628419334714 L3.3742936240085117,3.265574244504559 " />
			<path d="M3.4686794596451143,3.1743792588581696 L3.374293624008512,3.1676628419334714 " />
			<path d="M3.4686794596451143,0.6286827920098994 L3.4686794596451143,3.1743792588581696 " />
			<path d="M3.6102582131000167,0.6387574173969467 L3.468679459645114,0.6286827920098994 " />
			<path d="M3.6102582131000167,3.1844538842452166 L3.6102582131000167,0.6387574173969464 " />
			<path d="M3.704644048736619,3.191170301169915 L3.6102582131000167,3.1844538842452166 " />
			<path d="M3.7046440487366183,3.2890817037410023 L3.7046440487366183,3.191170301169915 " />
			<path d="M4.31815198037453,3.3327384137515406 L3.7046440487366183,3.2890817037410023 " />
			<path d="M4.31815198037453,3.234827011180453 L4.31815198037453,3.3327384137515406 " />
			<path d="M4.412537816011132,3.2415434281051514 L4.31815198037453,3.234827011180453 " />
			<path d="M4.412537816011132,2.1440827002361202 L4.412537816011132,3.2415434281051514 " />
			<path d="M4.553961667600226,1.938671018813816 L4.551180690076921,1.968097947977566 L4.544954045847367,1.9967105154631166 L4.535373804857543,2.0240856430528047 L4.522581624834766,2.049818549868619 L4.506766656673195,2.0735287376432714 L4.4881627475641235,2.0948656169377253 L4.467044983226839,2.1135136911134156 L4.443725620368169,2.1291972214066295 " />
			<path d="M4.443725620368168,2.1291972214066304 L4.412537816011137,2.1440827002361216 " />
			<path d="M4.223766144737933,2.1306498663867295 L4.195405466888539,2.1133416993563316 L4.16929689116467,2.0923581693068942 L4.145919446886278,2.0680842733457343 L4.125702053706181,2.0409653788493767 L4.109015651970139,2.0114990520476272 L4.096166396857225,1.9802259288847344 L4.087390041171568,1.9477197956552867 L4.082847609847666,1.9145770614112367 L4.082622445531668,1.8814058152959485 L4.086718679445069,1.8488146695767758 L4.095061155586763,1.8174015930795768 L4.107496809664193,1.7877429399046791 L4.123797477453506,1.7603828747208656 L4.143664081062115,1.7358233886577006 L4.166732116285842,1.714515088980464 L4.192578340380891,1.6968489315349204 " />
			<path d="M4.1925783403808925,1.6968489315349193 L4.2177544912338885,1.684361848816377 L4.244415164256555,1.675255853261493 L4.272166142815595,1.6696655901925148 L4.300597088532494,1.6676737197390055 L4.329287608730275,1.6693096945882049 L4.357813472547615,1.6745493244844263 L4.385752883806061,1.6833151339169927 L4.412692717876941,1.6954775077077846 " />
			<path d="M4.223766144737929,3.130199191684668 L4.223766144737929,2.130649866386731 " />
			<path d="M3.79902988437322,3.0999753155235257 L4.223766144737929,3.1301991916846674 " />
			<path d="M3.7990298843732204,0.5542788486752557 L3.7990298843732204,3.099975315523526 " />
			<path d="M3.7046440487366183,0.5475624317505573 L3.7990298843732204,0.5542788486752556 " />
			<path d="M3.7046440487366183,0.44965102917947014 L3.7046440487366183,0.5475624317505573 " />
			<path d="M3.3742936240085126,0.42614356994302655 L3.704644048736619,0.44965102917947025 " />
			<path d="M3.3742936240085126,0.5240549725141137 L3.3742936240085126,0.4261435699430265 " />
			<path d="M3.2799077883719105,0.5173385555894154 L3.3742936240085126,0.5240549725141137 " />
			<path d="M3.2799077883719105,3.0630350224376857 L3.2799077883719105,0.5173385555894154 " />
			<path d="M3.1383290349170077,3.0529603970506383 L3.2799077883719105,3.0630350224376857 " />
			<path d="M3.138329034917008,0.5072639302023683 L3.138329034917008,3.0529603970506383 " />
			<path d="M3.043943199280406,0.50054751327767 L3.138329034917008,0.5072639302023682 " />
			<path d="M3.043943199280406,0.40263611070658284 L3.043943199280406,0.50054751327767 " />
			<path d="M2.7135927745523003,0.37912865147013913 L3.0439431992804065,0.40263611070658284 " />
			<path d="M2.7135927745523003,0.4770400540412263 L2.7135927745523003,0.3791286514701391 " />
			<path d="M2.6192069389156987,0.4703236371165282 L2.7135927745523003,0.4770400540412264 " />
			<path d="M2.6192069389156987,3.0160201039647982 L2.6192069389156987,0.470323637116528 " />
			<path d="M2.477628185460796,3.005945478577751 L2.6192069389156987,3.0160201039647982 " />
			<path d="M2.477628185460796,0.4602490117294808 L2.477628185460796,3.005945478577751 " />
			<path d="M2.3832423498241937,0.45353259480478264 L2.477628185460796,0.4602490117294809 " />
			<path d="M2.3832423498241937,0.3556211922336954 L2.3832423498241937,0.45353259480478264 " />
			<path d="M2.0528919250960875,0.3321137329972517 L2.3832423498241937,0.3556211922336954 " />
			<path d="M2.0528919250960875,0.4300251355683389 L2.0528919250960875,0.33211373299725166 " />
			<path d="M1.9585060894594861,0.4233087186436408 L2.0528919250960875,0.430025135568339 " />
			<path d="M1.9585060894594861,1.8919797572099506 L1.9585060894594861,0.4233087186436406 " />
			<path d="M1.8641202538228843,1.8852633402852526 L1.9585060894594861,1.8919797572099508 " />
			<path d="M1.8641202538228845,1.0040607171454667 L1.8641202538228845,1.8852633402852526 " />
			<path d="M0.8292941289232041,1.4078415018907677 L0.8051792365591242,1.4003841506544978 L0.780617378411719,1.3955459426967565 L0.7558785972525346,1.3933800711871476 L0.7312348810146015,1.3939103485726678 L0.7069571724496511,1.3971309447742564 L0.6833123902764676,1.4030064512849882 L0.6605604945710495,1.4114722704651865 L0.6389516286628372,1.4224353257543925 " />
			<path d="M0.6389516286628363,1.422435325754393 L0.619974803777934,1.4348509805502203 L0.6023900788891339,1.449228940991817 L0.586366804509904,1.4654307394603379 L0.5720592935317286,1.4833003437797272 L0.5596053351066088,1.5026656598918697 L0.5491248676622048,1.5233401892164469 L0.5407188238292124,1.5451248247342158 L0.5344681584049542,1.567809768496447 L0.5304330687144273,1.5911765520938588 L0.5286524148771559,1.6150001406268246 L0.529143345562997,1.6390510999144736 L0.5319011328410762,1.6630978060712744 L0.5368992177123457,1.68690867617167 L0.544089465887264,1.7102543985202483 L0.5534026313453173,1.7329101410487222 L0.5647490232120502,1.7546577165716537 L0.5780193695312175,1.7752876840483232 L0.5930858696134564,1.7946013656144428 L0.6098034248267883,1.8124127599585986 L0.6280110359757631,1.8285503336165576 L0.6475333538117239,1.8428586729322989 L0.6681823677419259,1.8551999807764774 L0.6897592164743217,1.865455403608109 L0.7120561031605135,1.8735261760991408 L0.7348582965929947,1.879334572298551 L0.7579461991840638,1.8828246541757467 L0.7810974618106374,1.8839628103343782 L0.804089125157854,1.8827380797084579 L0.8266997669391585,1.8791622571234194 L0.8487116343139628,1.8732697797055002 L0.8699127409665368,1.8651173952333906 L0.8900989086501103,1.8547836156261048 " />
			<path d="M0.8900989086501121,1.8547836156261037 L0.9103271683528205,1.8414438563886544 L0.9289524243717515,1.8258740557858426 L0.9457699032843925,1.8082453943562893 L0.9605947070838933,1.7887516885678902 L0.9732638460207969,1.7676072599230013 L0.9836380305767332,1.7450445786231752 L0.99160320286841,1.721311707699928 L0.9970717906450398,1.6966695757117753 " />
			<path d="M4.445572858483943,2.124892937594129 L4.412537816011132,2.144082700236124 " />
			<path d="M4.256801187210742,2.111460103744734 L4.279510200433124,2.121945154015838 L4.302977181726784,2.130017967168739 L4.326953972454793,2.1355931748178243 L4.351187022847341,2.1386118202564983 L4.375420073239891,2.1390419819125714 L4.399396863967898,2.1368791109125054 L4.42286384526156,2.132146079184842 L4.445572858483939,2.1248929375941303 " />
			<path d="M4.25680118721074,2.1114601037447325 L4.223766144737929,2.1306498663867273 " />
			<path d="M0.44833271927385837,0.9033144632749937 L0.481367761746669,0.8841247006329988 " />
			<path d="M1.8641202538228845,1.0040607171454667 L1.897155296295695,0.9848709545034718 " />
			<path d="M0.48136776174666895,0.8841247006329989 L1.897155296295695,0.9848709545034718 " />
			<path d="M1.8641202538228843,1.8852633402852526 L1.8971552962956948,1.8660735776432578 " />
			<path d="M1.897155296295695,0.9848709545034718 L1.897155296295695,1.8660735776432578 " />
			<path d="M1.9915411319322966,1.872789994567956 L1.9585060894594861,1.8919797572099508 " />
			<path d="M1.8971552962956948,1.8660735776432578 L1.9915411319322966,1.872789994567956 " />
			<path d="M1.9585060894594861,0.4233087186436408 L1.9915411319322966,0.40411895600164593 " />
			<path d="M1.9915411319322966,1.8727899945679558 L1.9915411319322966,0.4041189560016458 " />
			<path d="M2.085926967568898,0.4108353729263441 L2.0528919250960875,0.43002513556833893 " />
			<path d="M1.9915411319322966,0.40411895600164593 L2.085926967568898,0.41083537292634414 " />
			<path d="M2.0528919250960875,0.3321137329972517 L2.085926967568898,0.3129239703552569 " />
			<path d="M2.0859269675688985,0.4108353729263441 L2.0859269675688985,0.3129239703552569 " />
			<path d="M2.3832423498241937,0.3556211922336954 L2.4162773922970042,0.3364314295917006 " />
			<path d="M2.0859269675688985,0.3129239703552569 L2.4162773922970047,0.3364314295917006 " />
			<path d="M2.4162773922970042,0.4343428321627878 L2.3832423498241937,0.45353259480478264 " />
			<path d="M2.4162773922970042,0.3364314295917006 L2.4162773922970042,0.4343428321627878 " />
			<path d="M2.477628185460796,0.4602490117294808 L2.5106632279336067,0.44105924908748595 " />
			<path d="M2.4162773922970047,0.4343428321627878 L2.5106632279336067,0.44105924908748606 " />
			<path d="M2.5106632279336067,2.986755715935756 L2.477628185460796,3.005945478577751 " />
			<path d="M2.5106632279336067,0.44105924908748595 L2.5106632279336067,2.986755715935756 " />
			<path d="M2.652241981388509,2.9968303413228035 L2.6192069389156987,3.0160201039647982 " />
			<path d="M2.5106632279336063,2.986755715935756 L2.652241981388509,2.9968303413228035 " />
			<path d="M2.6192069389156987,0.4703236371165282 L2.652241981388509,0.45113387447453335 " />
			<path d="M2.652241981388509,2.9968303413228035 L2.652241981388509,0.45113387447453324 " />
			<path d="M2.746627817025111,0.4578502913992315 L2.7135927745523003,0.47704005404122635 " />
			<path d="M2.652241981388509,0.45113387447453335 L2.746627817025111,0.45785029139923156 " />
			<path d="M2.7135927745523003,0.37912865147013913 L2.746627817025111,0.3599388888281443 " />
			<path d="M2.746627817025111,0.4578502913992315 L2.746627817025111,0.3599388888281443 " />
			<path d="M3.043943199280406,0.40263611070658284 L3.0769782417532165,0.383446348064588 " />
			<path d="M2.746627817025111,0.3599388888281443 L3.076978241753217,0.383446348064588 " />
			<path d="M3.0769782417532165,0.48135775063567515 L3.043943199280406,0.50054751327767 " />
			<path d="M3.0769782417532165,0.383446348064588 L3.0769782417532165,0.4813577506356752 " />
			<path d="M3.138329034917008,0.5072639302023683 L3.1713640773898186,0.4880741675603734 " />
			<path d="M3.0769782417532165,0.48135775063567515 L3.1713640773898186,0.48807416756037336 " />
			<path d="M3.1713640773898186,3.0337706344086435 L3.138329034917008,3.0529603970506383 " />
			<path d="M3.1713640773898186,0.48807416756037336 L3.1713640773898186,3.0337706344086435 " />
			<path d="M3.312942830844721,3.043845259795691 L3.2799077883719105,3.0630350224376857 " />
			<path d="M3.171364077389818,3.0337706344086435 L3.312942830844721,3.043845259795691 " />
			<path d="M3.2799077883719105,0.5173385555894154 L3.312942830844721,0.4981487929474206 " />
			<path d="M3.312942830844721,3.043845259795691 L3.312942830844721,0.49814879294742065 " />
			<path d="M3.407328666481323,0.5048652098721188 L3.3742936240085126,0.5240549725141137 " />
			<path d="M3.312942830844721,0.49814879294742065 L3.407328666481323,0.5048652098721189 " />
			<path d="M3.3742936240085126,0.42614356994302655 L3.407328666481323,0.4069538073010317 " />
			<path d="M3.407328666481323,0.5048652098721189 L3.407328666481323,0.4069538073010317 " />
			<path d="M3.7046440487366183,0.44965102917947014 L3.737679091209429,0.4304612665374753 " />
			<path d="M3.407328666481323,0.4069538073010317 L3.7376790912094293,0.4304612665374754 " />
			<path d="M3.737679091209429,0.5283726691085625 L3.7046440487366183,0.5475624317505574 " />
			<path d="M3.737679091209429,0.4304612665374753 L3.737679091209429,0.5283726691085625 " />
			<path d="M3.7990298843732204,0.5542788486752557 L3.832064926846031,0.5350890860332608 " />
			<path d="M3.737679091209429,0.5283726691085625 L3.832064926846031,0.5350890860332608 " />
			<path d="M3.832064926846031,3.080785552881531 L3.7990298843732204,3.0999753155235257 " />
			<path d="M3.832064926846031,0.5350890860332608 L3.832064926846031,3.080785552881531 " />
			<path d="M4.25680118721074,3.111009429042673 L4.223766144737929,3.130199191684668 " />
			<path d="M3.8320649268460305,3.080785552881531 L4.256801187210739,3.1110094290426726 " />
			<path d="M4.25680118721074,3.111009429042673 L4.25680118721074,2.111460103744739 " />
			<path d="M4.412537816011132,3.2415434281051514 L4.445572858483943,3.2223536654631566 " />
			<path d="M4.445572858483943,2.124892937594133 L4.445572858483943,3.2223536654631566 " />
			<path d="M4.31815198037453,3.234827011180453 L4.351187022847341,3.2156372485384583 " />
			<path d="M4.445572858483943,3.2223536654631566 L4.351187022847341,3.2156372485384583 " />
			<path d="M4.31815198037453,3.3327384137515406 L4.351187022847341,3.3135486511095458 " />
			<path d="M4.351187022847341,3.2156372485384583 L4.351187022847341,3.3135486511095458 " />
			<path d="M3.7046440487366183,3.2890817037410023 L3.737679091209429,3.2698919410990075 " />
			<path d="M4.351187022847341,3.3135486511095458 L3.7376790912094293,3.2698919410990075 " />
			<path d="M3.7046440487366183,3.191170301169915 L3.737679091209429,3.17198053852792 " />
			<path d="M3.737679091209429,3.2698919410990075 L3.737679091209429,3.17198053852792 " />
			<path d="M3.6102582131000167,3.1844538842452166 L3.6432932555728272,3.165264121603222 " />
			<path d="M3.7376790912094293,3.17198053852792 L3.6432932555728272,3.165264121603222 " />
			<path d="M3.6102582131000167,0.6387574173969466 L3.6432932555728272,0.6195676547549517 " />
			<path d="M3.6432932555728272,3.165264121603222 L3.6432932555728272,0.6195676547549516 " />
			<path d="M3.4686794596451143,0.6286827920098994 L3.501714502117925,0.6094930293679045 " />
			<path d="M3.6432932555728272,0.6195676547549518 L3.5017145021179243,0.6094930293679045 " />
			<path d="M3.4686794596451143,3.1743792588581696 L3.501714502117925,3.155189496216175 " />
			<path d="M3.501714502117925,0.6094930293679045 L3.501714502117925,3.155189496216175 " />
			<path d="M3.3742936240085117,3.1676628419334714 L3.4073286664813223,3.1484730792914766 " />
			<path d="M3.501714502117925,3.155189496216175 L3.4073286664813227,3.1484730792914766 " />
			<path d="M3.3742936240085117,3.265574244504559 L3.4073286664813223,3.246384481862564 " />
			<path d="M3.4073286664813223,3.1484730792914766 L3.4073286664813223,3.246384481862564 " />
			<path d="M3.043943199280406,3.242066785268115 L3.0769782417532165,3.22287702262612 " />
			<path d="M3.4073286664813223,3.246384481862564 L3.076978241753216,3.2228770226261205 " />
			<path d="M3.043943199280406,3.1441553826970274 L3.0769782417532165,3.1249656200550326 " />
			<path d="M3.0769782417532165,3.22287702262612 L3.0769782417532165,3.1249656200550326 " />
			<path d="M2.9495573636438044,3.137438965772329 L2.982592406116615,3.1182492031303344 " />
			<path d="M3.076978241753217,3.1249656200550326 L2.982592406116615,3.1182492031303344 " />
			<path d="M2.9495573636438044,0.5917424989240592 L2.982592406116615,0.5725527362820643 " />
			<path d="M2.982592406116615,3.1182492031303344 L2.982592406116615,0.5725527362820642 " />
			<path d="M2.8079786101889024,0.581667873537012 L2.841013652661713,0.5624781108950171 " />
			<path d="M2.982592406116615,0.5725527362820645 L2.8410136526617125,0.5624781108950172 " />
			<path d="M2.8079786101889024,3.127364340385282 L2.841013652661713,3.1081745777432874 " />
			<path d="M2.841013652661713,0.5624781108950171 L2.841013652661713,3.1081745777432874 " />
			<path d="M2.7135927745523003,3.120647923460584 L2.746627817025111,3.101458160818589 " />
			<path d="M2.841013652661713,3.1081745777432874 L2.7466278170251113,3.101458160818589 " />
			<path d="M2.7135927745523003,3.2185593260316714 L2.746627817025111,3.1993695633896766 " />
			<path d="M2.746627817025111,3.101458160818589 L2.746627817025111,3.1993695633896766 " />
			<path d="M2.3832423498241946,3.1950518667952275 L2.416277392297005,3.1758621041532327 " />
			<path d="M2.746627817025111,3.1993695633896766 L2.4162773922970047,3.175862104153233 " />
			<path d="M2.3832423498241946,3.09714046422414 L2.416277392297005,3.0779507015821452 " />
			<path d="M2.416277392297005,3.1758621041532327 L2.416277392297005,3.0779507015821452 " />
			<path d="M2.2888565141875925,3.090424047299442 L2.321891556660403,3.0712342846574474 " />
			<path d="M2.4162773922970056,3.0779507015821452 L2.321891556660403,3.071234284657447 " />
			<path d="M2.2888565141875925,0.544727580451172 L2.321891556660403,0.5255378178091771 " />
			<path d="M2.321891556660403,3.0712342846574474 L2.321891556660403,0.5255378178091772 " />
			<path d="M2.14727776073269,0.5346529550641246 L2.1803128032055006,0.5154631924221297 " />
			<path d="M2.321891556660403,0.5255378178091771 L2.1803128032055,0.5154631924221298 " />
			<path d="M2.14727776073269,3.080349421912395 L2.1803128032055006,3.0611596592704 " />
			<path d="M2.1803128032055006,0.5154631924221298 L2.1803128032055006,3.0611596592704 " />
			<path d="M1.9585060894594861,3.0669165880629983 L1.9915411319322966,3.0477268254210035 " />
			<path d="M2.1803128032055006,3.0611596592704 L1.991541131932297,3.0477268254210035 " />
			<path d="M1.9585060894594861,2.0878025623521252 L1.9915411319322966,2.0686127997101305 " />
			<path d="M1.9915411319322966,3.0477268254210035 L1.9915411319322966,2.0686127997101305 " />
			<path d="M1.8641202538228843,2.081086145427427 L1.8971552962956948,2.061896382785432 " />
			<path d="M1.9915411319322966,2.0686127997101305 L1.897155296295695,2.061896382785432 " />
			<path d="M1.8641202538228845,2.962288768567213 L1.897155296295695,2.9430990059252182 " />
			<path d="M1.897155296295695,2.0618963827854326 L1.897155296295695,2.9430990059252187 " />
			<path d="M0.44833271927385837,2.8615425146967404 L0.481367761746669,2.8423527520547456 " />
			<path d="M1.897155296295695,2.9430990059252182 L0.48136776174666895,2.842352752054745 " />
			<path d="M0.48136776174666895,2.8423527520547456 L0.48136776174666895,0.8841247006329989 " />
			<path d="M1.1874142909054077,1.6820757518481502 L0.8900989086501121,1.854783615626104 " />
			<path d="M0.9362670109181317,1.2497274619764394 L0.6389516286628362,1.4224353257543931 " />
			<path d="M4.774076045096274,1.9372995949866814 L4.443725620368168,2.12919722140663 " />
			<path d="M4.522928765108998,1.5049513051149708 L4.192578340380892,1.6968489315349193 " />

       </g>

       <!-- solid lines -->
       <g  stroke="rgb(0,0,0)" fill="none">
			<path d="M0.16517521236405308,-0.09594881320997423 L0.49552563709215924,-0.28784643962992273 " />
			<path d="M0.49552563709215924,-0.2878464396299227 L0.49552563709215924,3.139052650358134 " />
			<path d="M0.16517521236405308,3.3309502767780823 L0.49552563709215924,3.139052650358134 " />
			<path d="M0.16517521236405308,-0.09594881320997423 L0.16517521236405308,3.3309502767780823 " />
			<path d="M0.49552563709215924,-0.2878464396299227 L5.214817418922247,0.047974406604987196 " />
			<path d="M0.49552563709215924,3.139052650358134 L5.214817418922247,3.4748734965930437 " />
			<path d="M5.214817418922246,0.047974406604987196 L5.214817418922246,3.4748734965930437 " />
			<path d="M1.297805240003274,1.4826926492240402 L1.2959285724139147,1.5133692215983294 L1.2903284205760506,1.5432907575125425 L1.2810938624609998,1.5719813145645567 L1.2683717861758574,1.5989845307320238 L1.252364553509955,1.6238708834261095 L1.2333267810975517,1.6462445216278263 L1.2115612903967103,1.6657495624326177 L1.1874142909054086,1.6820757518481497 " />
			<path d="M1.1874142909054077,1.6820757518481502 L1.1672281232218322,1.692409531455437 L1.1460270165692583,1.7005619159275465 L1.1240151491944543,1.7064543933454657 L1.1014045074131498,1.7100302159305043 L1.078412844065933,1.7112549465564246 L1.0552615814393593,1.7101167903977932 L1.0321736788482903,1.7066267085205975 L1.0093714854158091,1.7008183123211875 L0.9870745987296172,1.6927475398301555 L0.9654977499972215,1.6824921169985239 L0.9448487360670196,1.6701508091543453 L0.9253264182310588,1.6558424698386043 L0.9071188070820839,1.6397048961806453 L0.8904012518687521,1.6218935018364893 L0.875334751786513,1.6025798202703696 L0.8620644054673458,1.5819498527937004 L0.8507180136006128,1.5602022772707689 L0.8414048481425596,1.537546534742295 L0.8342145999676411,1.5142008123937165 L0.8292165150963717,1.490389942293321 L0.8264587278182925,1.4663432361365203 L0.8259677971324513,1.442292276848871 L0.8277484509697228,1.4184686883159054 L0.8317835406602498,1.3951019047184936 L0.8380342060845078,1.3724169609562622 L0.8464402499175003,1.3506323254384933 L0.8569207173619043,1.3299577961139162 L0.869374675787024,1.3105924800017736 L0.8836821867651993,1.2927228756823845 L0.8997054611444294,1.2765210772138635 L0.9172901860332294,1.2621431167722665 L0.9362670109181299,1.2497274619764405 " />
			<path d="M0.9362670109181318,1.2497274619764394 L0.9639211160170433,1.2362262788975094 L0.9933112010807553,1.2267969265137648 L1.0239162199371301,1.2216065743980271 L1.055193587292905,1.2207472404228572 L1.086588798031816,1.2242341594090247 L1.1175452578349458,1.232005513032889 L1.1475141508397888,1.2439235257810668 L1.1759641693978804,1.2597769075226013 L1.2023909334356415,1.2792845993951603 L1.2263259324260014,1.3021007565957976 L1.2473448314418236,1.3278208797381892 L1.2650749940361226,1.355988986075732 L1.2792020885786528,1.386105693454488 L1.2894756609275209,1.4176370736785002 L1.295713574639945,1.4500241183293747 L1.297805240003274,1.4826926492240393 " />
			<path d="M4.884466994194141,1.7379164923625716 L4.882590326604782,1.7685930647368608 L4.8769901747669175,1.798514600651074 L4.867755616651866,1.8272051577030881 L4.855033540366724,1.8542083738705553 L4.839026307700822,1.879094726564641 L4.819988535288418,1.9014683647663577 L4.798223044587577,1.9209734055711492 L4.774076045096275,1.9372995949866811 " />
			<path d="M4.774076045096274,1.9372995949866816 L4.753889877412699,1.9476333745939685 L4.7326887707601255,1.9557857590660779 L4.710676903385321,1.961678236483997 L4.688066261604017,1.9652540590690357 L4.665074598256799,1.966478789694956 L4.641923335630226,1.9653406335363246 L4.618835433039157,1.961850551659129 L4.596033239606676,1.956042155459719 L4.573736352920484,1.9479713829686869 L4.552159504188088,1.9377159601370553 L4.531510490257887,1.9253746522928767 L4.511988172421925,1.9110663129771357 L4.493780561272951,1.8949287393191767 L4.477063006059619,1.8771173449750207 L4.46199650597738,1.857803663408901 L4.448726159658213,1.8371736959322318 L4.437379767791479,1.8154261204093003 L4.428066602333426,1.7927703778808264 L4.420876354158508,1.769424655532248 L4.415878269287239,1.7456137854318523 L4.413120482009159,1.7215670792750517 L4.4126295513233185,1.6975161199874025 L4.414410205160589,1.6736925314544369 L4.418445294851116,1.650325747857025 L4.424695960275375,1.6276408040947936 L4.433102004108367,1.6058561685770247 L4.443582471552771,1.5851816392524476 L4.456036429977891,1.565816323140305 L4.470343940956066,1.547946718820916 L4.486367215335296,1.531744920352395 L4.503951940224097,1.517366959910798 L4.522928765108997,1.5049513051149719 " />
			<path d="M4.522928765108999,1.5049513051149708 L4.5505828702079105,1.4914501220360408 L4.579972955271622,1.4820207696522962 L4.610577974127997,1.4768304175365585 L4.6418553414837715,1.4759710835613886 L4.673250552222683,1.479458002547556 L4.704207012025813,1.4872293561714205 L4.734175905030655,1.4991473689195982 L4.762625923588748,1.5150007506611327 L4.7890526876265085,1.5345084425336917 L4.812987686616868,1.557324599734329 L4.83400658563269,1.5830447228767206 L4.8517367482269895,1.6112128292142633 L4.86586384276952,1.6413295365930194 L4.876137415118388,1.6728609168170316 L4.882375328830812,1.7052479614679061 L4.884466994194141,1.7379164923625707 " />
			<path d="M0.16517521236405308,3.3309502767780823 L4.884466994194141,3.666771123012992 " />
			<path d="M4.88446699419414,3.666771123012992 L5.214817418922246,3.4748734965930437 " />
			<path d="M4.554116569466035,1.9298141187825202 L4.553961667600227,1.938671018813815 " />
			<path d="M4.412692717876941,1.6954775077077846 L4.4429035204980565,1.714128252693836 L4.4705024855498445,1.7369431224078957 L4.494911792399986,1.7634444575457222 L4.515620400105745,1.7930774178008806 L4.5321947467282415,1.8252215981763007 L4.544287826521871,1.8592040179788654 L4.551646454955986,1.8943132105553442 L4.554116569466035,1.9298141187825193 " />
			<path d="M1.0004898577479786,1.6554005130019938 L0.9974157778779502,1.615799258619015 L0.9882736347525425,1.5767923342075731 L0.973301630877131,1.5393960821060388 L0.952889868308169,1.504584877886971 L0.9275701843748645,1.4732657425788493 L0.8980022944268345,1.4462547098396739 L0.8649566026644584,1.4242555638459757 L0.8292941289232051,1.4078415018907682 " />
			<path d="M0.9970717906450398,1.6966695757117751 L1.0004898577479786,1.6554005130019944 " />

       </g>
    </g>
    <g transform="translate(20,210.0)" stroke="rgb(0,0,255)">
        <line x1="30" y1="-30" x2="75" y2="-33" stroke-width="3" stroke="#000000" />
         <text x="80" y="-30" style="stroke:#000000">X </text>

        <line x1="30" y1="-30" x2="30" y2="-75" stroke-width="3" stroke="#000000" />
         <text x="25" y="-85" style="stroke:#000000">Y </text>

        <line x1="30" y1="-30" x2="58" y2="-15" stroke-width="3" stroke="#000000" />
         <text x="65" y="-5" style="stroke:#000000">Z </text>
        <!--
            <line x1="0" y1="0" x2="45.516411422525515" y2="0" stroke-width="3" />
            <text x="0" y="20" style="stroke:#000000">1  in </text>
        -->
    </g>
</svg>
